<svg xmlns="http://www.w3.org/2000/svg" xmlns:xlink="http://www.w3.org/1999/xlink" id="Layer_1" x="0" y="0" version="1.1" viewBox="0 0 319.3 150.6" style="enable-background:new 0 0 319.3 150.6" xml:space="preserve"><style type="text/css">.st0{fill:#d8d8d8}.st1{fill:#64a76c}.st2,.st3{fill:#cacaca}.st3,.st4{fill-rule:evenodd;clip-rule:evenodd}.st4{fill:#64a76c}</style><path d="M318.2,123.6v10.2H53.9v-10.2H318.2z" class="st0"/><g><circle id="svg-ico" cx="63.4" cy="128.4" r="7.2" class="st1"/><animateMotion fill="remove" accumulate="none" additive="replace" begin="0s" calcMode="paced" dur="6s" path="M210,0 0 0 210,0" repeatCount="indefinite" restart="always"/></g><g><path d="M138.2,42.2c-0.7-0.4-1.6-0.9-2.5-1.3c-0.9-0.2-1.8-0.4-2.7-0.4c-1.3,0-2.5,0.2-3.4,0.7c-1.1,0.4-2,1.1-2.7,2 c-0.7,0.9-1.3,1.8-1.8,2.9c-0.4,1.1-0.7,2.2-0.7,3.6c0,1.1,0.2,2.5,0.7,3.4c0.4,1.1,0.9,2,1.8,2.9s1.6,1.3,2.7,1.8s2.2,0.7,3.4,0.7 c0.4,0,1.1,0,1.6-0.2c0.4,0,1.1-0.2,1.6-0.2v-5.8c0-0.2,0-0.4,0.2-0.7c0.2-0.2,0.4-0.2,0.7-0.2h6.1c0.2,0,0.4,0,0.7,0.2 c0.2,0.2,0.4,0.4,0.4,0.7v11c0,0.4-0.2,0.7-0.7,0.9c-0.7,0.4-1.6,0.9-2.2,1.3c-0.9,0.4-1.8,0.7-2.7,0.9c-0.9,0.2-1.8,0.4-2.9,0.4 c-0.9,0.2-1.8,0.2-2.7,0.2c-1.6,0-3.1-0.2-4.5-0.7c-1.6-0.4-2.9-0.9-4-1.8c-1.3-0.7-2.5-1.6-3.6-2.7s-2-2.2-2.7-3.4 c-0.7-1.3-1.3-2.7-1.8-4c-0.4-1.6-0.7-2.9-0.7-4.5c0-1.6,0.2-3.1,0.7-4.5c0.4-1.6,0.9-2.9,1.8-4c0.7-1.3,1.6-2.5,2.7-3.6 s2.2-2,3.6-2.7s2.7-1.3,4-1.8c1.3-0.4,2.9-0.7,4.5-0.7c1.8,0,3.6,0.2,5.2,0.7c1.6,0.4,3.1,1.1,4.5,2.2c0.2,0.2,0.4,0.4,0.7,0.7 c0.2,0.2,0,0.4,0,0.9l-3.6,5.4c-0.2,0.2-0.4,0.4-0.7,0.4C138.7,42.7,138.4,42.5,138.2,42.2z" class="st1"/><path d="M179.5,64.7c0,0.2,0,0.4-0.2,0.7c-0.2,0.2-0.2,0.4-0.4,0.4c-0.2,0.2-0.4,0.2-0.7,0.2c-0.2,0-0.4,0-0.7,0H173 c-0.2,0-0.7,0-0.7-0.2c-0.2,0-0.4-0.2-0.4-0.4s-0.2-0.2-0.2-0.4c0-0.2-0.2-0.4-0.2-0.7l-0.2-1.1c-0.4,0.4-0.9,0.9-1.3,1.1 c-0.4,0.4-1.1,0.7-1.8,1.1c-0.7,0.2-1.3,0.4-2,0.7s-1.3,0.2-2.2,0.2c-1.3,0-2.7-0.2-4-0.4c-1.3-0.4-2.5-0.9-3.6-1.6s-2-1.3-2.9-2.2 c-0.9-0.9-1.6-1.8-2.2-2.9c-0.7-1.1-1.1-2.2-1.6-3.6c-0.4-1.3-0.4-2.7-0.4-4c0-2,0.4-4,1.1-5.8c0.7-1.8,1.8-3.4,3.1-4.7 s2.9-2.5,4.7-3.1c1.8-0.7,3.8-1.1,5.8-1.1c0.9,0,1.8,0,2.7,0.2s1.6,0.4,2.2,0.9c0.7,0.4,1.3,0.9,1.8,1.3c0.4,0.4,1.1,1.1,1.3,1.6 l0.7-2c0.2-0.4,0.2-0.7,0.4-0.9c0-0.2,0.2-0.4,0.2-0.4c0.2-0.2,0.2-0.2,0.4-0.2s0.4,0,0.7,0h3.4c0.2,0,0.4,0,0.7,0 c0.2,0,0.4,0.2,0.7,0.2c0.2,0.2,0.4,0.4,0.4,0.7s0.2,0.4,0.2,0.7v26H179.5z M157.3,52.1c0,0.9,0.2,2,0.4,2.7 c0.2,0.9,0.7,1.6,1.3,2.2c0.7,0.7,1.3,1.1,2,1.6c0.9,0.4,1.8,0.4,2.7,0.4c0.9,0,2-0.2,2.9-0.4c0.9-0.4,1.6-0.9,2.2-1.6 s1.1-1.3,1.6-2.2s0.4-1.8,0.4-2.7c0-0.9-0.2-1.8-0.4-2.7c-0.4-0.9-0.9-1.6-1.6-2.2c-0.7-0.7-1.3-1.1-2.2-1.6s-1.8-0.7-2.9-0.7 c-0.9,0-1.8,0.2-2.7,0.7c-0.9,0.4-1.6,0.9-2,1.6c-0.7,0.7-1.1,1.3-1.3,2.2S157.3,51.2,157.3,52.1z" class="st1"/><path d="M185.5,38.2c0.2-0.2,0.4-0.2,0.7-0.2c0.2,0,0.4,0,0.7,0h3.4c0.2,0,0.4,0,0.7,0.2c0.2,0,0.4,0.2,0.4,0.4 c0.2,0.2,0.2,0.4,0.2,0.7s0.2,0.4,0.2,0.7l0.4,2c0.2-0.4,0.4-0.9,0.9-1.3c0.4-0.4,0.9-0.9,1.6-1.3c0.7-0.4,1.3-0.7,2.2-0.9 c0.9-0.2,2-0.4,3.1-0.4c0.9,0,1.8,0,2.7,0.2s1.6,0.4,2,0.9c0.7,0.4,1.1,0.9,1.8,1.3c0.4,0.4,1.1,1.1,1.6,1.8 c0.2-0.4,0.7-0.9,1.3-1.6c0.7-0.4,1.3-0.9,2-1.3c0.7-0.4,1.6-0.7,2.7-1.1c0.9-0.2,2-0.4,3.1-0.4c1.8,0,3.1,0.2,4.5,0.9 c1.3,0.7,2.2,1.6,3.1,2.7s1.6,2.5,1.8,4c0.4,1.6,0.7,3.1,0.7,4.9v14.8c0,0.7-0.2,0.9-0.4,1.3c-0.2,0.2-0.7,0.4-1.1,0.4h-5.2 c-0.7,0-1.1,0-1.3-0.2s-0.4-0.7-0.4-1.3V50.5c0-0.7,0-1.3-0.2-1.8s-0.4-1.1-0.9-1.3c-0.4-0.4-0.9-0.7-1.3-0.9 c-0.4-0.2-1.1-0.4-1.8-0.4s-1.1,0.2-1.6,0.4c-0.4,0.2-0.9,0.4-1.3,0.9s-0.7,0.9-0.9,1.3c-0.2,0.7-0.4,1.1-0.4,1.8v14.8 c0,0.7-0.2,0.9-0.4,1.3c-0.2,0.2-0.7,0.4-1.1,0.4h-0.4h-0.2h-4.5c-0.7,0-1.1,0-1.3-0.2c-0.2-1.1-0.2-1.6-0.2-2V50.1 c0-0.7,0-1.3-0.2-1.8s-0.4-1.1-0.9-1.3c-0.4-0.4-0.7-0.7-1.3-0.9c-0.4-0.2-1.1-0.4-1.8-0.4c-0.4,0-1.1,0-1.6,0.2 c-0.4,0.2-0.9,0.4-1.3,0.9s-0.7,0.9-1.1,1.3c-0.2,0.4-0.4,1.1-0.4,1.8v14.8c0,0.2,0,0.4-0.2,0.7c0,0.2-0.2,0.4-0.4,0.7 s-0.4,0.2-0.4,0.2c-0.2,0-0.4,0-0.7,0h-5.2c-0.7,0-1.1-0.2-1.3-0.4s-0.4-0.7-0.4-1.3V39.3c0-0.2,0-0.4,0.2-0.9 C185.1,38.4,185.3,38.2,185.5,38.2L185.5,38.2z" class="st1"/><path d="M232.8,28.1c0-0.7,0.2-1.1,0.4-1.3s0.7-0.4,1.3-0.4h5.2c0.4,0,0.9,0.2,1.3,0.4c0.2,0.2,0.4,0.7,0.4,1.3v4.5 c0,0.2,0,0.4-0.2,0.7c0,0.2-0.2,0.4-0.4,0.7c-0.2,0.2-0.2,0.4-0.4,0.4c-0.2,0.2-0.4,0.2-0.7,0.2h-5.2c-1.1,0-1.6-0.7-1.6-1.8v-4.7 H232.8z M232.8,39.6c0-0.4,0.2-0.9,0.4-1.3c0.2-0.4,0.7-0.4,1.3-0.4h5.2c0.2,0,0.4,0,0.7,0.2c0.2,0,0.4,0.2,0.7,0.4 c0.2,0.2,0.2,0.4,0.4,0.4c0.2,0.2,0.2,0.4,0.2,0.7v25.1c0,0.7-0.2,0.9-0.4,1.3c-0.2,0.2-0.7,0.4-1.3,0.4h-5.2 c-1.1,0-1.6-0.7-1.6-1.8V39.6H232.8z" class="st1"/><path d="M247.6,38.2c0.2-0.2,0.4-0.2,0.7-0.2c0.2,0,0.4,0,0.7,0h3.4c0.2,0,0.4,0,0.7,0.2c0.2,0,0.4,0.2,0.4,0.4 c0.2,0.2,0.2,0.4,0.2,0.7s0.2,0.4,0.2,0.7l0.4,2c0.2-0.4,0.7-0.9,1.1-1.3c0.4-0.4,1.1-0.9,1.8-1.3c0.7-0.4,1.6-0.7,2.7-0.9 c0.9-0.2,2-0.4,3.4-0.4c1.8,0,3.1,0.2,4.5,0.9c1.3,0.7,2.5,1.6,3.4,2.7c0.9,1.1,1.6,2.5,2.2,4c0.4,1.6,0.7,3.1,0.7,4.9v14.8 c0,0.7-0.2,0.9-0.4,1.3c-0.2,0.2-0.7,0.4-1.1,0.4h-5.2c-0.7,0-1.1,0-1.3-0.2s-0.4-0.7-0.4-1.3V51c0-0.7-0.2-1.3-0.4-1.8 c-0.2-0.7-0.7-1.1-1.1-1.6s-1.1-0.9-1.6-1.1c-0.7-0.2-1.1-0.4-1.8-0.4c-0.4,0-1.1,0.2-1.6,0.4c-0.7,0.2-1.1,0.7-1.6,0.9 c-0.4,0.4-0.9,0.9-1.1,1.6s-0.4,1.1-0.4,1.8v14.6c0,0.2,0,0.4-0.2,0.7c0,0.2-0.2,0.4-0.4,0.7s-0.4,0.2-0.4,0.2c-0.2,0-0.4,0-0.7,0 h-5.2c-0.7,0-1.1-0.2-1.3-0.4s-0.4-0.7-0.4-1.3V39.3c0-0.2,0-0.4,0.2-0.9C247.1,38.4,247.4,38.2,247.6,38.2L247.6,38.2z" class="st1"/><path d="M300.3,65.3c0-0.2,0.2-0.7,0.2-0.9c0-0.4,0-0.7,0-1.1c0-0.2,0-0.2,0-0.2v-0.2c0,0,0,0,0-0.2s0-0.2,0-0.2 c-0.4,0.4-0.9,0.9-1.3,1.3c-0.4,0.4-0.9,0.9-1.6,1.1c-0.4,0.4-1.1,0.7-1.8,0.9c-0.7,0.2-1.6,0.2-2.5,0.2c-2,0-3.8-0.4-5.6-1.1 c-1.8-0.7-3.1-1.6-4.5-2.9s-2.2-2.7-2.9-4.5c-0.7-1.8-1.1-3.6-1.1-5.6c0-2,0.4-4,1.1-5.8c0.7-1.8,1.8-3.4,2.9-4.7 c1.3-1.3,2.7-2.5,4.5-3.1c1.8-0.7,3.6-1.1,5.6-1.1c0.9,0,1.8,0,2.5,0.2c0.7,0.2,1.6,0.4,2,0.9c0.7,0.4,1.1,0.9,1.8,1.3 c0.4,0.4,1.1,1.1,1.6,1.6l0.7-2c0-0.2,0.2-0.4,0.2-0.7s0.2-0.4,0.2-0.4c0.2-0.2,0.2-0.2,0.4-0.2c0.2,0,0.4-0.2,0.7-0.2h3.4 c0.2,0,0.4,0,0.7,0.2c0.2,0,0.4,0.2,0.7,0.2c0.2,0.2,0.2,0.2,0.4,0.4c0,0.2,0.2,0.4,0.2,0.7V62c0,2.2-0.4,4.5-1.1,6.3 c-0.7,1.8-1.8,3.4-3.1,4.7c-1.3,1.3-2.9,2.2-4.7,2.9s-3.8,0.9-5.8,0.9c-0.9,0-1.8,0-2.7-0.2s-1.8-0.4-2.7-0.7s-1.8-0.7-2.7-1.1 s-1.6-0.9-2.2-1.6c-0.2-0.2-0.4-0.4-0.7-0.7c-0.2-0.2-0.2-0.4-0.2-0.9s0.2-0.7,0.4-1.1l2.2-2.9c0.2-0.2,0.4-0.4,0.7-0.4 c0.2-0.2,0.4-0.2,0.7-0.2c0.2,0,0.7,0.2,1.3,0.4c0.4,0.4,0.9,0.7,1.3,0.9c0.4,0.2,0.9,0.4,1.6,0.4c0.4,0.2,1.1,0.2,1.6,0.2 s0.9,0,1.3,0c0.7,0,1.3,0,2-0.2c0.7-0.2,1.3-0.4,2-0.9s1.1-0.9,1.8-1.3C299.6,66.7,300,66,300.3,65.3z M287.3,51.9 c0,0.9,0.2,2,0.4,2.9c0.2,0.9,0.7,1.6,1.3,2.2c0.7,0.7,1.3,1.1,2,1.6c0.9,0.4,1.8,0.4,2.7,0.4s1.8-0.2,2.7-0.4 c0.9-0.4,1.6-0.9,2.2-1.3c0.7-0.7,1.1-1.3,1.6-2c0.4-0.9,0.7-1.8,0.7-2.7v-0.7c0-0.9-0.2-1.8-0.7-2.7s-0.9-1.6-1.6-2.2 c-0.7-0.7-1.3-1.1-2.2-1.6c-0.9-0.4-1.8-0.4-2.7-0.4s-1.8,0.2-2.7,0.7s-1.6,0.9-2,1.6c-0.7,0.7-1.1,1.3-1.3,2.2 C287.5,50.1,287.3,51,287.3,51.9z" class="st1"/></g><g><path d="M122.2,99.4c0.3,0.3,0.8,0.5,1.1,1.1c0.5,0.5,1.1,0.8,1.6,1.3c0.8,0.5,1.9,1.1,2.7,1.3s1.9,0.5,2.9,0.5 c0.8,0,1.6,0,2.4-0.3c0.5-0.3,1.1-0.5,1.3-0.8c0.3-0.3,0.5-0.8,0.8-1.1c0.3-0.5,0.3-0.8,0.3-1.3c0-0.5-0.3-1.1-0.5-1.6 c-0.5-0.5-1.1-0.8-1.6-1.1c-0.5-0.3-1.3-0.5-1.9-0.8c-0.5-0.3-1.3-0.5-1.6-0.5c-2.1-0.8-4-1.6-5.6-2.4c-1.6-0.8-2.9-1.9-4-2.9 c-1.1-1.1-1.9-2.1-2.4-3.5c-0.5-1.3-0.8-2.7-0.8-4.3c0-1.6,0.3-3.2,1.1-4.5c0.8-1.3,1.6-2.4,2.9-3.5c1.3-1.1,2.7-1.6,4.5-2.1 c1.9-0.5,3.7-0.8,5.9-0.8c1.6,0,3.2,0.3,4.8,0.5c1.6,0.3,2.9,1.1,4.5,1.9c0.5,0.3,1.1,0.8,1.6,1.1c0.5,0.3,1.1,0.8,1.3,1.1 c0.5,0.3,0.8,0.8,1.1,1.1c0.3,0.3,0.3,0.5,0.3,0.8s0,0.5-0.3,0.5c0,0.3-0.3,0.5-0.5,0.8l-4,4.3c-0.3,0.3-0.5,0.5-0.8,0.5 s-0.5,0-0.8-0.3c-0.3-0.3-0.5-0.3-0.8-0.5l-0.3-0.3c-0.3-0.3-0.8-0.5-1.1-1.1c-0.3-0.5-0.8-0.5-1.3-0.8c-0.5-0.3-1.1-0.5-1.6-0.5 c-0.5,0-1.1-0.3-1.6-0.3c-0.5,0-1.1,0-1.6,0.3c-0.5,0-1.1,0.3-1.3,0.5c-0.3,0.3-0.8,0.5-1.1,0.8c-0.3,0.3-0.3,0.8-0.3,1.3 s0,1.1,0.3,1.3c0.3,0.3,0.5,0.8,1.1,1.1c0.5,0.3,1.1,0.5,1.9,0.8c0.8,0.3,1.6,0.5,2.7,0.8c1.9,0.5,3.7,1.3,5.3,1.9 c1.6,0.8,2.9,1.6,4.3,2.4c1.1,1.1,2.1,2.1,2.7,3.5c0.5,1.3,1.1,2.9,1.1,4.8c0,1.9-0.5,3.7-1.3,5.3s-1.9,2.9-3.2,4s-2.9,1.9-5.1,2.7 c-1.9,0.5-4,0.8-6.2,0.8c-2.1,0-4-0.3-6.2-1.1c-1.9-0.8-3.7-1.6-5.6-2.9c-0.8-0.5-1.3-1.1-1.9-1.6c-0.5-0.5-0.8-0.8-1.1-1.3l0,0 l0,0l0,0l0,0l0,0c-0.5-0.5-0.5-0.8-0.5-1.1c0-0.3,0.3-0.5,0.5-1.1l4.5-4.5c0.3-0.3,0.8-0.5,0.8-0.5 C121.9,99.1,121.9,99.1,122.2,99.4C121.7,99.1,121.9,99.4,122.2,99.4z" class="st2"/><path d="M180,108.2c-1.6,1.3-3.5,2.7-5.3,3.5c-1.9,0.8-4,1.3-6.2,1.3c-2.4,0-4.8-0.5-7-1.3c-2.1-0.8-4-2.1-5.9-3.7 c-1.6-1.6-2.9-3.5-4-5.6c-1.1-2.1-1.3-4.5-1.3-7c0-1.6,0.3-3.2,0.5-4.5c0.3-1.6,0.8-2.9,1.6-4.3c0.8-1.3,1.6-2.4,2.7-3.5 c1.1-1.1,2.1-2.1,3.5-2.7c1.3-0.8,2.7-1.3,4-1.9c1.3-0.5,2.9-0.5,4.5-0.5c1.6,0,2.9,0.3,4.3,0.5c1.3,0.3,2.7,1.1,4,1.6 c1.3,0.8,2.4,1.6,3.5,2.7c1.1,1.1,1.9,2.1,2.7,3.2s1.3,2.4,1.6,3.7c0.5,1.3,0.5,2.7,0.5,4.3c0,0.8,0,1.6,0,2.4 c0,0.5-0.3,1.1-0.5,1.3c-0.3,0.3-0.8,0.5-1.3,0.8c-0.5,0.3-1.3,0.3-2.7,0.3h-19.3c0.3,1.1,0.5,2.1,1.1,2.9c0.5,0.8,1.1,1.3,1.9,1.9 s1.6,0.8,2.4,1.1c0.8,0.3,1.6,0.3,2.4,0.3c0.5,0,1.3,0,1.9-0.3c0.8-0.3,1.3-0.3,1.9-0.5s1.3-0.5,1.9-0.8c0.5-0.3,1.1-0.5,1.3-0.8 c0.3-0.3,0.5-0.5,0.8-0.5s0.5-0.3,0.5-0.3c0.3,0,0.5,0,0.8,0.3c0.3,0.3,0.5,0.3,0.8,0.8l2.9,3.2c0.3,0.3,0.3,0.5,0.3,0.5 c0,0.3,0,0.3,0,0.5c0,0.3,0,0.8-0.3,0.8C180.5,107.9,180.2,108.2,180,108.2z M166.9,86c-0.8,0-1.3,0.3-2.1,0.5 c-0.5,0.3-1.3,0.5-1.9,1.1c-0.5,0.5-1.1,1.1-1.6,1.6c-0.5,0.5-0.8,1.1-1.1,1.9h13.6c-0.3-0.8-0.8-1.3-1.3-1.9 c-0.5-0.5-1.1-1.1-1.6-1.6c-0.5-0.5-1.3-0.8-1.9-1.1C168.7,86,167.9,86,166.9,86z" class="st2"/><path d="M189.3,80.1c0-0.3,0-0.5,0.3-0.8c0-0.3,0.3-0.5,0.5-0.5c0.3-0.3,0.5-0.3,0.8-0.3s0.5,0,0.8,0h4 c0.5,0,0.8,0.3,1.1,0.5c0.3,0.3,0.5,0.5,0.8,1.1s0.3,0.8,0.5,1.3c0.3,0.5,0.3,1.1,0.5,1.3c0.5-0.5,1.1-1.1,1.6-1.9 c0.5-0.5,1.1-1.1,1.6-1.6c0.5-0.5,1.3-0.8,1.9-1.1c0.8-0.3,1.6-0.5,2.4-0.5c1.1,0,1.9,0,2.7,0.3c0.8,0.3,1.6,0.3,2.1,0.5 c0.8,0.3,1.3,0.5,2.1,1.1s1.3,0.8,2.1,1.6c0.8,0.5,1.1,1.1,1.1,1.6c0,0.3-0.3,0.8-0.5,1.3l-2.4,4.3c-0.5,0.8-1.1,1.1-1.9,1.1 c-0.3,0-0.8,0-1.3-0.3c-0.8-0.8-1.6-1.3-2.4-1.6c-0.8-0.3-1.6-0.5-2.7-0.5c-0.8,0-1.3,0-1.9,0.3c-0.5,0.3-1.1,0.5-1.3,0.8 c-0.5,0.3-0.8,0.8-1.3,1.3c-0.3,0.5-0.8,1.1-1.1,1.6v19.5c0,0.8-0.3,1.1-0.5,1.6c-0.3,0.3-0.8,0.5-1.6,0.5h-6.2 c-1.3,0-2.1-0.8-2.1-2.1V80.1H189.3z" class="st2"/><path d="M217.9,80.9c-0.3-0.8-0.5-1.3-0.3-1.9c0.3-0.5,0.8-0.8,1.6-0.8h7c0.5,0,0.8,0,1.3,0.3c0.3,0.3,0.5,0.5,0.8,1.1 c0.3,1.1,0.5,2.1,1.1,3.2c0.3,1.1,0.8,2.4,1.1,3.7c0.5,1.3,0.8,2.4,1.1,3.7c0.3,1.3,0.8,2.4,1.1,3.5c0.3,1.1,0.5,1.9,0.8,2.7 c0.3,0.8,0.5,1.3,0.5,1.6l5.6-18.2c0.3-0.5,0.5-1.1,0.8-1.1s0.8-0.3,1.3-0.3h7c0.5,0,0.8,0,1.1,0.3c0.3,0,0.5,0.3,0.5,0.5 c0,0.3,0,0.5,0,0.8c0,0.3-0.3,0.5-0.3,0.8l-12.8,30.8c-0.3,0.3-0.5,0.5-0.8,0.8s-0.8,0.3-1.3,0.3h-3.2c-0.8,0-1.3,0-1.6-0.3 c-0.3-0.3-0.5-0.5-0.5-0.8L217.9,80.9z" class="st2"/><path d="M281.6,108.2c-1.6,1.3-3.5,2.7-5.3,3.5c-1.9,0.8-4,1.3-6.2,1.3c-2.4,0-4.8-0.5-7-1.3c-2.1-0.8-4-2.1-5.9-3.7 c-1.6-1.6-2.9-3.5-4-5.6c-1.1-2.1-1.3-4.5-1.3-7c0-1.6,0.3-3.2,0.5-4.5c0.3-1.6,0.8-2.9,1.6-4.3c0.8-1.3,1.6-2.4,2.7-3.5 c1.1-1.1,2.1-2.1,3.5-2.7c1.3-0.8,2.7-1.3,4-1.9c1.3-0.5,2.9-0.5,4.5-0.5c1.6,0,2.9,0.3,4.3,0.5c1.3,0.3,2.7,1.1,4,1.6 c1.3,0.8,2.4,1.6,3.5,2.7c1.1,1.1,1.9,2.1,2.7,3.2c0.8,1.1,1.3,2.4,1.6,3.7c0.5,1.3,0.5,2.7,0.5,4.3c0,0.8,0,1.6,0,2.4 c0,0.5-0.3,1.1-0.5,1.3c-0.3,0.3-0.8,0.5-1.3,0.8c-0.5,0.3-1.3,0.3-2.7,0.3h-19.3c0.3,1.1,0.5,2.1,1.1,2.9c0.5,0.8,1.1,1.3,1.9,1.9 c0.8,0.5,1.6,0.8,2.4,1.1c0.8,0.3,1.6,0.3,2.4,0.3c0.5,0,1.3,0,1.9-0.3c0.8-0.3,1.3-0.3,1.9-0.5c0.5-0.3,1.3-0.5,1.9-0.8 c0.5-0.3,1.1-0.5,1.3-0.8c0.3-0.3,0.5-0.5,0.8-0.5c0.3,0,0.5-0.3,0.5-0.3c0.3,0,0.5,0,0.8,0.3c0.3,0.3,0.5,0.3,0.8,0.8l2.9,3.2 c0.3,0.3,0.3,0.5,0.3,0.5c0,0.3,0,0.3,0,0.5c0,0.3,0,0.8-0.3,0.8C282.1,107.9,281.8,108.2,281.6,108.2z M268.7,86 c-0.8,0-1.3,0.3-2.1,0.5c-0.5,0.3-1.3,0.5-1.9,1.1s-1.1,1.1-1.6,1.6c-0.5,0.5-0.8,1.1-1.1,1.9h13.6c-0.3-0.8-0.8-1.3-1.3-1.9 c-0.5-0.5-1.1-1.1-1.6-1.6c-0.5-0.5-1.3-0.8-1.9-1.1C270.6,86,269.8,86,268.7,86z" class="st2"/><path d="M291.2,80.1c0-0.3,0-0.5,0.3-0.8c0-0.3,0.3-0.5,0.5-0.5c0.3-0.3,0.5-0.3,0.8-0.3c0.3,0,0.5,0,0.8,0h4 c0.5,0,0.8,0.3,1.1,0.5c0.3,0.3,0.5,0.5,0.8,1.1c0.3,0.5,0.3,0.8,0.5,1.3c0.3,0.5,0.3,1.1,0.5,1.3c0.5-0.5,1.1-1.1,1.6-1.9 c0.5-0.5,1.1-1.1,1.6-1.6c0.5-0.5,1.3-0.8,1.9-1.1c0.8-0.3,1.6-0.5,2.4-0.5c1.1,0,1.9,0,2.7,0.3c0.8,0.3,1.6,0.3,2.1,0.5 c0.8,0.3,1.3,0.5,2.1,1.1c0.8,0.5,1.3,0.8,2.1,1.6c0.8,0.5,1.1,1.1,1.1,1.6c0,0.3-0.3,0.8-0.5,1.3l-2.4,4.3 c-0.5,0.8-1.1,1.1-1.9,1.1c-0.3,0-0.8,0-1.3-0.3c-0.8-0.8-1.6-1.3-2.4-1.6c-0.8-0.3-1.6-0.5-2.7-0.5c-0.8,0-1.3,0-1.9,0.3 c-0.5,0.3-1.1,0.5-1.3,0.8c-0.5,0.3-0.8,0.8-1.3,1.3c-0.3,0.5-0.8,1.1-1.1,1.6v19.5c0,0.8-0.3,1.1-0.5,1.6 c-0.3,0.3-0.8,0.5-1.6,0.5h-6.2c-1.3,0-2.1-0.8-2.1-2.1V80.1H291.2z" class="st2"/></g><g><path d="M37.4,137.6l26.9-34.7l10.1,12.7h16.4L64.1,81.1c-14.4,18.8-28.9,37.7-43.3,56.5H37.4L37.4,137.6z M68.6,77.3 C83.8,56.5,99.9,36.1,116,15.9h16.8L84.6,77.5l29.4,37.8H98C88.1,102.7,78.3,90,68.6,77.3z" class="st3"/><path d="M49,38H38.3l26.5,34.4c14.4-18.8,28.9-37.7,43.3-56.5H97.5c-11,14.2-21.9,28.2-32.7,42.5L49,38L49,38z M60.3,76C45.1,96.9,29,117.2,13.1,137.6H2.3c16.1-20.4,32-40.7,47.4-61.6C40,63.3,30.2,50.6,20.4,38h10.6 C40.8,50.6,50.6,63.3,60.3,76z" class="st4"/></g></svg>