<svg xmlns="http://www.w3.org/2000/svg" width="971" height="177" fill="none" viewBox="0 0 971 177"><path fill="#fff" d="M944.658 88.3202V77.526H920.613V88.3202H944.658ZM896.568 142.291V55.9375H968.703V109.909H920.613V120.703H968.703V142.291H896.568Z"/><path fill="#fff" d="M832.61 142.291V77.5259H808.565V55.9374H832.61V23.5547H856.655V55.9374H880.7V77.5259H856.655V142.291H832.61Z"/><path fill="#fff" d="M720.562 174.674V153.086H768.651V142.291H720.562V55.9375H744.606V120.703H768.651V55.9375H792.696V174.674H720.562Z"/><path fill="#fff" d="M680.646 120.703V77.5259H656.601V120.703H680.646ZM632.557 142.291V23.5547H656.601V55.9374H704.691V142.291H632.557Z"/><path fill="#fff" d="M968.704 120.703H920.614V109.909H968.704V55.9371H896.569V142.291H968.704V120.703ZM944.659 77.5254V88.3195H920.614V77.5254H944.659ZM922.86 86.3023H942.412V79.5426H922.86V86.3023ZM970.95 109.909C970.95 111.023 969.944 111.926 968.704 111.926H922.86V118.686H968.704C969.944 118.686 970.95 119.589 970.95 120.703V142.291C970.95 143.405 969.944 144.308 968.704 144.308H896.569C895.328 144.308 894.322 143.405 894.322 142.291V55.9371C894.322 54.8231 895.328 53.92 896.569 53.9199H968.704C969.944 53.92 970.95 54.8231 970.95 55.9371V109.909Z"/><path fill="#fff" d="M880.699 77.525V55.9367H856.654V23.5543H832.609V55.9367H808.564V77.525H832.609V142.291H856.654V77.525H880.699ZM858.901 53.9195H880.699C881.94 53.9195 882.946 54.8227 882.946 55.9367V77.525C882.946 78.639 881.94 79.5421 880.699 79.5421H858.901V142.291C858.901 143.405 857.895 144.308 856.654 144.308H832.609C831.368 144.308 830.362 143.405 830.362 142.291V79.5421H808.564C807.323 79.542 806.317 78.6389 806.317 77.525V55.9367C806.317 54.8227 807.323 53.9196 808.564 53.9195H830.362V23.5543C830.362 22.4404 831.368 21.5374 832.609 21.5371H856.654C857.895 21.5373 858.901 22.4403 858.901 23.5543V53.9195Z"/><path fill="#fff" d="M744.606 55.9371H720.561V142.291H768.65V153.085H720.561V174.674H792.695V55.9371H768.65V120.703H744.606V55.9371ZM794.942 174.674C794.942 175.788 793.936 176.691 792.695 176.691H720.561C719.32 176.691 718.314 175.788 718.314 174.674V153.085C718.315 151.971 719.32 151.068 720.561 151.068H766.404V144.308H720.561C719.32 144.308 718.314 143.405 718.314 142.291V55.9371C718.314 54.8231 719.32 53.9199 720.561 53.9199H744.606C745.846 53.92 746.852 54.8231 746.852 55.9371V118.686H766.404V55.9371C766.404 54.8231 767.41 53.9199 768.65 53.9199H792.695C793.936 53.9199 794.942 54.8231 794.942 55.9371V174.674Z"/><path fill="#fff" d="M704.691 55.9367H656.602V23.5543H632.557V142.291H704.691V55.9367ZM680.646 77.525V120.702H656.602V77.525H680.646ZM658.849 118.685H678.4V79.5421H658.849V118.685ZM658.849 53.9195H704.691C705.932 53.9195 706.938 54.8227 706.938 55.9367V142.291C706.938 143.405 705.932 144.308 704.691 144.308H632.557C631.316 144.308 630.311 143.405 630.311 142.291V23.5543C630.311 22.4402 631.316 21.5371 632.557 21.5371H656.602C657.843 21.5371 658.849 22.4402 658.849 23.5543V53.9195Z"/><path fill="#fff" d="M568.597 53.9219C569.837 53.9219 570.844 54.8245 570.844 55.9385V118.688H590.396V55.9385C590.396 54.8245 591.402 53.9219 592.643 53.9219H616.687C617.927 53.922 618.933 54.8246 618.934 55.9385V174.675C618.934 175.789 617.927 176.692 616.687 176.692H544.552C543.311 176.692 542.306 175.789 542.306 174.675V153.087C542.306 151.973 543.311 151.07 544.552 151.069H590.396V144.31H544.552C543.311 144.309 542.306 143.407 542.306 142.293V55.9385C542.306 54.8247 543.311 53.9221 544.552 53.9219H568.597ZM544.552 142.293H592.642V142.292L544.552 142.293Z"/><path fill="#fff" d="M216.58 21.5371C217.821 21.5371 218.827 22.4406 218.827 23.5547V53.9199H264.671C265.911 53.9202 266.917 54.8228 266.917 55.9365V142.291C266.917 143.405 265.911 144.307 264.671 144.308H192.536C191.295 144.308 190.289 143.405 190.289 142.291V23.5547C190.289 22.4406 191.295 21.5371 192.536 21.5371H216.58ZM352.674 53.9199C353.915 53.9199 354.921 54.8226 354.921 55.9365V109.908C354.921 111.022 353.915 111.926 352.674 111.926H306.832V118.686H352.674C353.914 118.686 354.921 119.588 354.921 120.702V142.291C354.921 143.405 353.915 144.308 352.674 144.308H280.54C279.299 144.307 278.294 143.405 278.294 142.291V55.9365C278.294 54.8227 279.3 53.9201 280.54 53.9199H352.674ZM440.679 53.9199C441.919 53.92 442.925 54.8227 442.925 55.9365V77.5254C442.925 78.6393 441.919 79.5419 440.679 79.542H394.836V142.291C394.836 143.405 393.83 144.307 392.59 144.308H368.545C367.304 144.308 366.298 143.405 366.298 142.291V55.9365C366.298 54.8226 367.304 53.9199 368.545 53.9199H440.679ZM528.683 53.9199C529.923 53.9199 530.929 54.8226 530.93 55.9365V77.5254C530.93 78.6393 529.923 79.542 528.683 79.542H482.841V142.291C482.841 143.405 481.834 144.307 480.594 144.308H456.548C455.307 144.307 454.302 143.405 454.302 142.291V55.9365C454.302 54.8228 455.307 53.9202 456.548 53.9199H528.683ZM280.54 142.291H352.674V142.29H280.54V142.291ZM392.589 142.29L392.59 142.291V77.5254H392.589V142.29ZM456.548 142.291H480.594V142.29H456.549V55.9365H456.548V142.291ZM240.625 120.702H240.626V77.5254H240.625V120.702ZM218.827 118.686H238.378V79.542H218.827V118.686ZM306.832 86.3018H326.383V79.542H306.832V86.3018Z"/><rect width="11.211" height="22.422" fill="#E94C71" transform="matrix(-1 0 0 1 135.162 112.107)"/><rect width="11.211" height="44.843" fill="#E94C71" transform="matrix(-1 0 0 1 146.373 67.2656)"/><rect width="11.211" height="44.843" fill="#E94C71" transform="matrix(-1 0 0 1 135.162 67.2656)"/><rect width="33.632" height="11.211" x="56.687" y="56.055" fill="#E94C71"/><rect width="33.632" height="11.211" x="79.108" y="22.422" fill="#E94C71" transform="rotate(90 79.1084 22.4219)"/><rect width="67.265" height="11.211" x="45.476" y="145.74" fill="#E94C71"/><rect width="33.632" height="11.211" x="23.055" y="44.842" fill="#E94C71"/><rect width="11.211" height="11.211" fill="#E94C71" transform="matrix(-1 0 0 1 23.0547 56.0547)"/><rect width="11.211" height="22.422" fill="#E94C71" transform="matrix(-1 0 0 1 34.2646 123.318)"/><rect width="11.211" height="22.422" fill="#E94C71" transform="matrix(-1 0 0 1 123.951 123.318)"/><rect width="11.211" height="22.422" fill="#E94C71" transform="matrix(-1 0 0 1 45.4756 134.643)"/><rect width="11.211" height="22.422" fill="#E94C71" transform="matrix(-1 0 0 1 112.74 134.643)"/><rect width="5.634" height="5.626" fill="#E94C71" transform="matrix(-1 0 0 1 112.74 129.018)"/><rect width="5.634" height="5.626" fill="#E94C71" transform="matrix(-1 0 0 1 101.53 129.018)"/><rect width="5.634" height="5.626" fill="#E94C71" transform="matrix(-1 0 0 1 112.74 117.92)"/><rect width="5.634" height="5.626" fill="#E94C71" transform="matrix(-1 0 0 1 112.74 106.822)"/><rect width="5.634" height="5.626" fill="#E94C71" transform="matrix(-1 0 0 1 112.74 95.7969)"/><rect width="5.634" height="5.626" fill="#E94C71" transform="matrix(-1 0 0 1 112.74 84.0605)"/><rect width="5.634" height="5.626" fill="#E94C71" transform="matrix(-1 0 0 1 112.74 73.1113)"/><rect width="5.634" height="5.626" fill="#E94C71" transform="matrix(-1 0 0 1 123.951 117.92)"/><rect width="5.634" height="5.626" fill="#E94C71" transform="matrix(-1 0 0 1 123.951 106.822)"/><rect width="5.634" height="5.626" fill="#E94C71" transform="matrix(-1 0 0 1 123.951 84.0605)"/><rect width="5.634" height="5.626" fill="#E94C71" transform="matrix(-1 0 0 1 123.951 95.7969)"/><rect width="5.634" height="5.626" fill="#E94C71" transform="matrix(-1 0 0 1 123.951 73.1113)"/><rect width="5.634" height="5.626" fill="#E94C71" transform="matrix(-1 0 0 1 101.53 117.92)"/><rect width="5.634" height="5.626" fill="#E94C71" transform="matrix(-1 0 0 1 101.53 106.822)"/><rect width="5.634" height="5.626" fill="#E94C71" transform="matrix(-1 0 0 1 101.53 95.7969)"/><rect width="5.634" height="5.626" fill="#E94C71" transform="matrix(-1 0 0 1 101.53 84.0605)"/><rect width="5.634" height="5.626" fill="#E94C71" transform="matrix(-1 0 0 1 90.3193 129.018)"/><rect width="5.634" height="5.626" fill="#E94C71" transform="matrix(-1 0 0 1 101.53 140.113)"/><rect width="5.634" height="5.626" fill="#E94C71" transform="matrix(-1 0 0 1 78.8906 140.113)"/><rect width="5.634" height="5.626" fill="#E94C71" transform="matrix(-1 0 0 1 90.3193 117.92)"/><rect width="5.634" height="5.626" fill="#E94C71" transform="matrix(-1 0 0 1 90.3193 106.822)"/><rect width="5.634" height="5.626" fill="#E94C71" transform="matrix(-1 0 0 1 90.3193 95.7969)"/><rect width="5.634" height="5.626" fill="#E94C71" transform="matrix(-1 0 0 1 79.1084 129.018)"/><rect width="5.634" height="5.626" fill="#E94C71" transform="matrix(-1 0 0 1 67.8975 129.018)"/><rect width="5.634" height="5.626" fill="#E94C71" transform="matrix(-1 0 0 1 107.163 123.391)"/><rect width="5.634" height="5.626" fill="#E94C71" transform="matrix(-1 0 0 1 95.9531 123.391)"/><rect width="5.634" height="5.626" fill="#E94C71" transform="matrix(-1 0 0 1 90.3193 140.113)"/><rect width="5.634" height="5.626" fill="#E94C71" transform="matrix(-1 0 0 1 67.8164 140.113)"/><rect width="5.634" height="5.626" fill="#E94C71" transform="matrix(-1 0 0 1 56.5498 140.113)"/><rect width="5.634" height="5.626" fill="#E94C71" transform="matrix(-1 0 0 1 84.7422 123.391)"/><rect width="5.634" height="5.626" fill="#E94C71" transform="matrix(-1 0 0 1 79.1084 117.92)"/><rect width="5.634" height="5.626" fill="#E94C71" transform="matrix(-1 0 0 1 79.1084 106.822)"/><rect width="5.634" height="5.626" fill="#E94C71" transform="matrix(-1 0 0 1 73.5312 123.391)"/><rect width="5.634" height="5.626" fill="#E94C71" transform="matrix(-1 0 0 1 67.8975 117.92)"/><rect width="5.634" height="5.626" fill="#E94C71" transform="matrix(-1 0 0 1 107.163 112.293)"/><rect width="5.634" height="5.626" fill="#E94C71" transform="matrix(-1 0 0 1 107.163 78.4336)"/><rect width="5.634" height="5.626" fill="#E94C71" transform="matrix(-1 0 0 1 107.163 101.197)"/><rect width="5.634" height="5.626" fill="#E94C71" transform="matrix(-1 0 0 1 107.163 90.1719)"/><rect width="5.634" height="5.626" fill="#E94C71" transform="matrix(-1 0 0 1 118.374 78.4336)"/><rect width="5.634" height="5.626" fill="#E94C71" transform="matrix(-1 0 0 1 118.374 112.293)"/><rect width="5.634" height="5.626" fill="#E94C71" transform="matrix(-1 0 0 1 118.374 101.197)"/><rect width="5.634" height="5.626" fill="#E94C71" transform="matrix(-1 0 0 1 118.374 90.1719)"/><rect width="5.634" height="5.848" fill="#E94C71" transform="matrix(-1 0 0 1 118.374 67.2637)"/><rect width="5.634" height="5.626" fill="#E94C71" transform="matrix(-1 0 0 1 95.9531 112.293)"/><rect width="5.634" height="5.626" fill="#E94C71" transform="matrix(-1 0 0 1 95.9531 101.197)"/><rect width="5.634" height="5.626" fill="#E94C71" transform="matrix(-1 0 0 1 95.9531 90.1719)"/><rect width="5.634" height="5.626" fill="#E94C71" transform="matrix(-1 0 0 1 95.9531 134.488)"/><rect width="5.634" height="5.626" fill="#E94C71" transform="matrix(-1 0 0 1 73.4502 134.488)"/><rect width="5.634" height="5.626" fill="#E94C71" transform="matrix(-1 0 0 1 62.1836 134.488)"/><rect width="5.634" height="5.626" fill="#E94C71" transform="matrix(-1 0 0 1 84.7422 112.293)"/><rect width="5.634" height="5.626" fill="#E94C71" transform="matrix(-1 0 0 1 84.7422 101.197)"/><rect width="5.634" height="5.626" fill="#E94C71" transform="matrix(-1 0 0 1 84.7422 134.488)"/><rect width="5.634" height="5.626" fill="#E94C71" transform="matrix(-1 0 0 1 73.5312 112.293)"/><rect width="11.211" height="22.422" fill="#E94C71" transform="matrix(-1 0 0 1 23.0547 112.107)"/><rect width="11.211" height="22.422" fill="#E94C71" fill-opacity=".3" transform="matrix(1.19249e-08 -1 -1 -1.19249e-08 112.74 22.4219)"/><rect width="11.211" height="44.843" fill="#E94C71" transform="matrix(-1 0 0 1 11.8438 67.2656)"/><rect width="33.632" height="11.211" x="90.319" y="44.842" fill="#E94C71"/><rect width="22.422" height="11.259" x="112.74" y="56.055" fill="#E94C71"/><rect width="11.211" height="22.422" x="135.162" y="11.211" fill="#E94C71" transform="rotate(90 135.162 11.2109)"/><rect width="11.211" height="11.211" x="90.319" y="11.211" fill="#E94C71" transform="rotate(90 90.3193 11.2109)"/><rect width="11.211" height="22.422" x="67.897" y="11.211" fill="#E94C71" transform="rotate(90 67.8975 11.2109)"/><rect width="11.211" height="22.422" x="56.687" fill="#E94C71" transform="rotate(90 56.6865 0)"/><rect width="44.843" height="11.211" x="90.319" fill="#E94C71"/><rect width="67.265" height="11.211" x="56.687" y="22.422" fill="#E94C71"/></svg>