<svg xmlns="http://www.w3.org/2000/svg" width="971" height="177" fill="none" viewBox="0 0 971 177"><path fill="#000" d="M944.658 88.6152V77.8209H920.613V88.6152H944.658ZM896.568 142.586V56.2324H968.703V110.204H920.613V120.998H968.703V142.586H896.568Z"/><path fill="#000" d="M832.61 142.586V77.8208H808.565V56.2324H832.61V23.8496H856.655V56.2324H880.7V77.8208H856.655V142.586H832.61Z"/><path fill="#000" d="M720.562 174.969V153.381H768.651V142.586H720.562V56.2324H744.606V120.998H768.651V56.2324H792.696V174.969H720.562Z"/><path fill="#000" d="M680.646 120.998V77.8208H656.601V120.998H680.646ZM632.557 142.586V23.8496H656.601V56.2324H704.691V142.586H632.557Z"/><path fill="#000" d="M968.704 120.998H920.614V110.204H968.704V56.232H896.569V142.586H968.704V120.998ZM944.659 77.8203V88.6144H920.614V77.8203H944.659ZM922.86 86.5972H942.412V79.8375H922.86V86.5972ZM970.95 110.204C970.95 111.317 969.944 112.221 968.704 112.221H922.86V118.981H968.704C969.944 118.981 970.95 119.884 970.95 120.998V142.586C970.95 143.7 969.944 144.603 968.704 144.603H896.569C895.328 144.603 894.322 143.7 894.322 142.586V56.232C894.322 55.118 895.328 54.2149 896.569 54.2148H968.704C969.944 54.215 970.95 55.1181 970.95 56.232V110.204Z"/><path fill="#000" d="M880.699 77.8199V56.2316H856.654V23.8492H832.609V56.2316H808.564V77.8199H832.609V142.586H856.654V77.8199H880.699ZM858.901 54.2144H880.699C881.94 54.2144 882.946 55.1176 882.946 56.2316V77.8199C882.946 78.9339 881.94 79.837 880.699 79.8371H858.901V142.586C858.901 143.7 857.895 144.603 856.654 144.603H832.609C831.368 144.603 830.362 143.7 830.362 142.586V79.8371H808.564C807.323 79.8369 806.317 78.9339 806.317 77.8199V56.2316C806.317 55.1177 807.323 54.2146 808.564 54.2144H830.362V23.8492C830.362 22.7353 831.368 21.8323 832.609 21.832H856.654C857.895 21.8322 858.901 22.7352 858.901 23.8492V54.2144Z"/><path fill="#000" d="M744.606 56.232H720.561V142.586H768.65V153.38H720.561V174.968H792.695V56.232H768.65V120.998H744.606V56.232ZM794.942 174.968C794.942 176.083 793.936 176.986 792.695 176.986H720.561C719.32 176.986 718.314 176.083 718.314 174.968V153.38C718.315 152.266 719.32 151.363 720.561 151.363H766.404V144.603H720.561C719.32 144.603 718.314 143.7 718.314 142.586V56.232C718.314 55.118 719.32 54.2148 720.561 54.2148H744.606C745.846 54.215 746.852 55.1181 746.852 56.232V118.981H766.404V56.232C766.404 55.118 767.41 54.2148 768.65 54.2148H792.695C793.936 54.2148 794.942 55.118 794.942 56.232V174.968Z"/><path fill="#000" d="M704.691 56.2316H656.602V23.8492H632.557V142.586H704.691V56.2316ZM680.646 77.8199V120.997H656.602V77.8199H680.646ZM658.849 118.98H678.4V79.8371H658.849V118.98ZM658.849 54.2144H704.691C705.932 54.2144 706.938 55.1176 706.938 56.2316V142.586C706.938 143.7 705.932 144.603 704.691 144.603H632.557C631.316 144.603 630.311 143.7 630.311 142.586V23.8492C630.311 22.7352 631.316 21.832 632.557 21.832H656.602C657.843 21.832 658.849 22.7352 658.849 23.8492V54.2144Z"/><path fill="#000" d="M568.597 54.2168C569.837 54.2168 570.844 55.1195 570.844 56.2334V118.982H590.396V56.2334C590.396 55.1195 591.402 54.2168 592.643 54.2168H616.687C617.927 54.2169 618.933 55.1195 618.934 56.2334V174.97C618.934 176.084 617.927 176.987 616.687 176.987H544.552C543.311 176.987 542.306 176.084 542.306 174.97V153.382C542.306 152.268 543.311 151.364 544.552 151.364H590.396V144.604H544.552C543.311 144.604 542.306 143.702 542.306 142.588V56.2334C542.306 55.1196 543.311 54.217 544.552 54.2168H568.597ZM544.552 142.588H592.642V142.587H544.552V142.588Z"/><path fill="#000" d="M216.58 21.832C217.821 21.832 218.827 22.7355 218.827 23.8496V54.2148H264.671C265.911 54.2152 266.917 55.1177 266.917 56.2314V142.586C266.917 143.7 265.911 144.602 264.671 144.603H192.536C191.295 144.603 190.289 143.7 190.289 142.586V23.8496C190.289 22.7355 191.295 21.832 192.536 21.832H216.58ZM352.674 54.2148C353.915 54.2148 354.921 55.1175 354.921 56.2314V110.203C354.921 111.317 353.915 112.221 352.674 112.221H306.832V118.98H352.674C353.914 118.98 354.921 119.883 354.921 120.997V142.586C354.921 143.7 353.915 144.603 352.674 144.603H280.54C279.299 144.602 278.294 143.7 278.294 142.586V56.2314C278.294 55.1177 279.3 54.215 280.54 54.2148H352.674ZM440.679 54.2148C441.919 54.2149 442.925 55.1176 442.925 56.2314V77.8203C442.925 78.9342 441.919 79.8368 440.679 79.8369H394.836V142.586C394.836 143.7 393.83 144.602 392.59 144.603H368.545C367.304 144.603 366.298 143.7 366.298 142.586V56.2314C366.298 55.1175 367.304 54.2148 368.545 54.2148H440.679ZM528.683 54.2148C529.923 54.2149 530.929 55.1175 530.93 56.2314V77.8203C530.93 78.9342 529.923 79.8369 528.683 79.8369H482.841V142.586C482.841 143.7 481.834 144.602 480.594 144.603H456.548C455.307 144.602 454.302 143.7 454.302 142.586V56.2314C454.302 55.1177 455.307 54.2151 456.548 54.2148H528.683ZM280.54 142.586H352.674V142.585H280.54V142.586ZM392.589 142.585H368.545V142.586H392.59V77.8203H392.589V142.585ZM456.548 142.586H480.594V142.585H456.549V56.2314H456.548V142.586ZM240.625 120.997H240.626V77.8203H240.625V120.997ZM218.827 118.98H238.378V79.8369H218.827V118.98ZM306.832 86.5967H326.383V79.8369H306.832V86.5967Z"/><rect width="11.211" height="22.422" fill="#E94C71" transform="matrix(-1 0 0 1 135.162 112.402)"/><rect width="11.211" height="44.843" fill="#E94C71" transform="matrix(-1 0 0 1 146.373 67.5605)"/><rect width="11.211" height="44.843" fill="#E94C71" transform="matrix(-1 0 0 1 135.162 67.5605)"/><rect width="33.632" height="11.211" x="56.687" y="56.35" fill="#E94C71"/><rect width="33.632" height="11.211" x="79.108" y="22.717" fill="#E94C71" transform="rotate(90 79.1084 22.7168)"/><rect width="67.265" height="11.211" x="45.476" y="146.035" fill="#E94C71"/><rect width="33.632" height="11.211" x="23.055" y="45.137" fill="#E94C71"/><rect width="11.211" height="11.211" fill="#E94C71" transform="matrix(-1 0 0 1 23.0547 56.3496)"/><rect width="11.211" height="22.422" fill="#E94C71" transform="matrix(-1 0 0 1 34.2646 123.613)"/><rect width="11.211" height="22.422" fill="#E94C71" transform="matrix(-1 0 0 1 123.951 123.613)"/><rect width="11.211" height="22.422" fill="#E94C71" transform="matrix(-1 0 0 1 45.4756 134.938)"/><rect width="11.211" height="22.422" fill="#E94C71" transform="matrix(-1 0 0 1 112.74 134.938)"/><rect width="5.634" height="5.626" fill="#E94C71" transform="matrix(-1 0 0 1 112.74 129.312)"/><rect width="5.634" height="5.626" fill="#E94C71" transform="matrix(-1 0 0 1 101.53 129.312)"/><rect width="5.634" height="5.626" fill="#E94C71" transform="matrix(-1 0 0 1 112.74 118.215)"/><rect width="5.634" height="5.626" fill="#E94C71" transform="matrix(-1 0 0 1 112.74 107.117)"/><rect width="5.634" height="5.626" fill="#E94C71" transform="matrix(-1 0 0 1 112.74 96.0918)"/><rect width="5.634" height="5.626" fill="#E94C71" transform="matrix(-1 0 0 1 112.74 84.3555)"/><rect width="5.634" height="5.626" fill="#E94C71" transform="matrix(-1 0 0 1 112.74 73.4062)"/><rect width="5.634" height="5.626" fill="#E94C71" transform="matrix(-1 0 0 1 123.951 118.215)"/><rect width="5.634" height="5.626" fill="#E94C71" transform="matrix(-1 0 0 1 123.951 107.117)"/><rect width="5.634" height="5.626" fill="#E94C71" transform="matrix(-1 0 0 1 123.951 84.3555)"/><rect width="5.634" height="5.626" fill="#E94C71" transform="matrix(-1 0 0 1 123.951 96.0918)"/><rect width="5.634" height="5.626" fill="#E94C71" transform="matrix(-1 0 0 1 123.951 73.4062)"/><rect width="5.634" height="5.626" fill="#E94C71" transform="matrix(-1 0 0 1 101.53 118.215)"/><rect width="5.634" height="5.626" fill="#E94C71" transform="matrix(-1 0 0 1 101.53 107.117)"/><rect width="5.634" height="5.626" fill="#E94C71" transform="matrix(-1 0 0 1 101.53 96.0918)"/><rect width="5.634" height="5.626" fill="#E94C71" transform="matrix(-1 0 0 1 101.53 84.3555)"/><rect width="5.634" height="5.626" fill="#E94C71" transform="matrix(-1 0 0 1 90.3193 129.312)"/><rect width="5.634" height="5.626" fill="#E94C71" transform="matrix(-1 0 0 1 101.53 140.408)"/><rect width="5.634" height="5.626" fill="#E94C71" transform="matrix(-1 0 0 1 78.8906 140.408)"/><rect width="5.634" height="5.626" fill="#E94C71" transform="matrix(-1 0 0 1 90.3193 118.215)"/><rect width="5.634" height="5.626" fill="#E94C71" transform="matrix(-1 0 0 1 90.3193 107.117)"/><rect width="5.634" height="5.626" fill="#E94C71" transform="matrix(-1 0 0 1 90.3193 96.0918)"/><rect width="5.634" height="5.626" fill="#E94C71" transform="matrix(-1 0 0 1 79.1084 129.312)"/><rect width="5.634" height="5.626" fill="#E94C71" transform="matrix(-1 0 0 1 67.8975 129.312)"/><rect width="5.634" height="5.626" fill="#E94C71" transform="matrix(-1 0 0 1 107.163 123.686)"/><rect width="5.634" height="5.626" fill="#E94C71" transform="matrix(-1 0 0 1 95.9531 123.686)"/><rect width="5.634" height="5.626" fill="#E94C71" transform="matrix(-1 0 0 1 90.3193 140.408)"/><rect width="5.634" height="5.626" fill="#E94C71" transform="matrix(-1 0 0 1 67.8164 140.408)"/><rect width="5.634" height="5.626" fill="#E94C71" transform="matrix(-1 0 0 1 56.5498 140.408)"/><rect width="5.634" height="5.626" fill="#E94C71" transform="matrix(-1 0 0 1 84.7422 123.686)"/><rect width="5.634" height="5.626" fill="#E94C71" transform="matrix(-1 0 0 1 79.1084 118.215)"/><rect width="5.634" height="5.626" fill="#E94C71" transform="matrix(-1 0 0 1 79.1084 107.117)"/><rect width="5.634" height="5.626" fill="#E94C71" transform="matrix(-1 0 0 1 73.5312 123.686)"/><rect width="5.634" height="5.626" fill="#E94C71" transform="matrix(-1 0 0 1 67.8975 118.215)"/><rect width="5.634" height="5.626" fill="#E94C71" transform="matrix(-1 0 0 1 107.163 112.588)"/><rect width="5.634" height="5.626" fill="#E94C71" transform="matrix(-1 0 0 1 107.163 78.7285)"/><rect width="5.634" height="5.626" fill="#E94C71" transform="matrix(-1 0 0 1 107.163 101.492)"/><rect width="5.634" height="5.626" fill="#E94C71" transform="matrix(-1 0 0 1 107.163 90.4668)"/><rect width="5.634" height="5.626" fill="#E94C71" transform="matrix(-1 0 0 1 118.374 78.7285)"/><rect width="5.634" height="5.626" fill="#E94C71" transform="matrix(-1 0 0 1 118.374 112.588)"/><rect width="5.634" height="5.626" fill="#E94C71" transform="matrix(-1 0 0 1 118.374 101.492)"/><rect width="5.634" height="5.626" fill="#E94C71" transform="matrix(-1 0 0 1 118.374 90.4668)"/><rect width="5.634" height="5.848" fill="#E94C71" transform="matrix(-1 0 0 1 118.374 67.5586)"/><rect width="5.634" height="5.626" fill="#E94C71" transform="matrix(-1 0 0 1 95.9531 112.588)"/><rect width="5.634" height="5.626" fill="#E94C71" transform="matrix(-1 0 0 1 95.9531 101.492)"/><rect width="5.634" height="5.626" fill="#E94C71" transform="matrix(-1 0 0 1 95.9531 90.4668)"/><rect width="5.634" height="5.626" fill="#E94C71" transform="matrix(-1 0 0 1 95.9531 134.783)"/><rect width="5.634" height="5.626" fill="#E94C71" transform="matrix(-1 0 0 1 73.4502 134.783)"/><rect width="5.634" height="5.626" fill="#E94C71" transform="matrix(-1 0 0 1 62.1836 134.783)"/><rect width="5.634" height="5.626" fill="#E94C71" transform="matrix(-1 0 0 1 84.7422 112.588)"/><rect width="5.634" height="5.626" fill="#E94C71" transform="matrix(-1 0 0 1 84.7422 101.492)"/><rect width="5.634" height="5.626" fill="#E94C71" transform="matrix(-1 0 0 1 84.7422 134.783)"/><rect width="5.634" height="5.626" fill="#E94C71" transform="matrix(-1 0 0 1 73.5312 112.588)"/><rect width="11.211" height="22.422" fill="#E94C71" transform="matrix(-1 0 0 1 23.0547 112.402)"/><rect width="11.211" height="22.422" fill="#E94C71" fill-opacity=".3" transform="matrix(1.19249e-08 -1 -1 -1.19249e-08 112.74 22.7168)"/><rect width="11.211" height="44.843" fill="#E94C71" transform="matrix(-1 0 0 1 11.8438 67.5605)"/><rect width="33.632" height="11.211" x="90.319" y="45.137" fill="#E94C71"/><rect width="22.422" height="11.259" x="112.74" y="56.35" fill="#E94C71"/><rect width="11.211" height="22.422" x="135.162" y="11.506" fill="#E94C71" transform="rotate(90 135.162 11.5059)"/><rect width="11.211" height="11.211" x="90.319" y="11.506" fill="#E94C71" transform="rotate(90 90.3193 11.5059)"/><rect width="11.211" height="22.422" x="67.897" y="11.506" fill="#E94C71" transform="rotate(90 67.8975 11.5059)"/><rect width="11.211" height="22.422" x="56.687" y=".295" fill="#E94C71" transform="rotate(90 56.6865 0.294922)"/><rect width="44.843" height="11.211" x="90.319" y=".295" fill="#E94C71"/><rect width="67.265" height="11.211" x="56.687" y="22.717" fill="#E94C71"/></svg>